<svg viewBox="0 0 72 74.19" xmlns="http://www.w3.org/2000/svg"><path d="m31 74.18-1.16-.18c-1.88-.38-3.59-1.38-4.84-2.84-1.04-1.17-1.73-2.61-2-4.16-.43-2.12-.05-4.33 1.07-6.18 1.19-2.06 3.19-3.53 5.51-4.05 2.12-.54 4.36-.26 6.28.79.27.14.52.3.78.45l.78.58c.47.52 1 1 1.4 1.59.82 1.07 1.35 2.34 1.54 3.68.1.57.15 1.15.14 1.73-.05 1.84-.67 3.62-1.78 5.09-.8 1.06-1.82 1.92-3 2.52-.82.44-1.72.73-2.64.85l-.8.14h-1.28z" fill="#8ac64a"/><path d="m0 15.33c.09-.44.18-.88.28-1.33.27-1.18.82-2.28 1.61-3.21.99-1.23 2.34-2.12 3.85-2.57.61-.17 1.22-.28 1.85-.34 1.53-.15 3.07.16 4.41.91 1.34.7 2.45 1.77 3.21 3.07.88 1.47 1.26 3.19 1.08 4.9-.11.76-.29 1.51-.53 2.24l-.4.9c-.46.83-1.07 1.58-1.78 2.21-1.05.96-2.34 1.61-3.73 1.89-.52.12-1.04.19-1.57.21-1 0-1.99-.17-2.93-.52-1.19-.44-2.26-1.16-3.12-2.09-1.12-1.17-1.85-2.65-2.09-4.25 0-.23-.09-.46-.14-.69z" fill="#27818a"/><path d="m35.74 12.71c-1.29.74-2.79 1.04-4.26.84-1.69-.18-3.25-1.02-4.33-2.34-.88-1.04-1.43-2.32-1.57-3.68-.2-1.76.31-3.53 1.42-4.91.99-1.33 2.46-2.22 4.1-2.48.2 0 .41-.09.61-.14h1.29l1.24.28c.97.25 1.87.74 2.61 1.43 1.08.94 1.83 2.2 2.15 3.6.3 1.3.21 2.66-.27 3.9-.38 1.02-.99 1.93-1.8 2.65l-.28.24z" fill="#441a57"/><path d="m72 38.11c0 .06-.07.12-.07.18-.1 1.67-.43 3.31-1 4.88-.53 1.59-1.28 3.09-2.21 4.48-1.69 2.5-3.95 4.55-6.59 6-.06.03-.12.05-.19.06h-2.12c7.06-3.31 10.87-8.8 11.2-16.63-.33-7.83-4.14-13.32-11.2-16.63.72-.04 1.45-.04 2.17 0 .37.11.72.3 1.01.55 1.5.92 2.87 2.05 4.05 3.35 1.01 1.1 1.88 2.33 2.59 3.65.67 1.18 1.2 2.45 1.57 3.76.29 1.07.44 2.17.65 3.26.06.36.09.72.14 1.08z" fill="#2aab80"/><path d="m68.71 37.31c-.1 8.58-7.13 15.47-15.71 15.4-8.64-.07-15.58-7.13-15.52-15.76 0-.1 0-.2 0-.31.25-8.48 7.21-15.21 15.69-15.17 4.08-.04 8 1.57 10.87 4.47 3.07 2.98 4.76 7.1 4.66 11.37z" fill="#e4df1e"/><path d="m36.22 28.56c.56-.89 1.1-1.79 1.68-2.66.34-.48.71-.94 1.1-1.38.91-1.01 1.91-1.92 3-2.73l.84-.56c.33-.19.67-.4 1-.56.21-.11.44-.18.67-.2h1.84c-7.35 3.53-11.23 9.34-11.12 17.65.7 7.36 4.49 12.51 11.18 15.6h-1.11c-.37.05-.74.05-1.11 0-.39-.16-.77-.36-1.11-.61-.35-.2-.68-.43-1-.64l-.78-.59c-.47-.42-1-.82-1.41-1.27s-1.07-1.18-1.59-1.79c-.85-1.02-1.57-2.15-2.12-3.36-.51-1.1-.87-2.28-1.29-3.42l-.09-.18-.21-1.05c-.33-1.64-.44-3.33-.32-5 .07-1.36.33-2.71.75-4 .25-.74.51-1.47.77-2.2z" fill="#2aab80"/><path d="m42.83 21.23-.84.56c-1.09-1.58-2.18-3.18-3.25-4.79l-2.82-4.12c-.05-.07-.11-.14-.18-.21l.88-.61 1.07 1.63 1.89 2.76 3.1 4.5c.06.12.1.2.15.28z" fill="#b3d334"/><path d="m41.29 51.86.78.59-1.74 2.32c-.48.63-1 1.27-1.45 1.9l-1.47 1.91-.78-.58c.33-.46.66-.92 1-1.38 1.14-1.53 2.29-3.05 3.45-4.57.06-.07.13-.14.21-.19z" fill="#b3d334"/><path d="m22.38 44.64c.16 1.08.05 2.18-.32 3.21-.57 1.57-1.74 2.84-3.25 3.55-1.67.85-3.64.89-5.35.12-3.28-1.4-4.8-5.19-3.4-8.47.84-1.96 2.59-3.38 4.69-3.79 1.79-.36 3.65.06 5.1 1.16 1.1.81 1.91 1.95 2.32 3.25z" fill="#23a581"/><g fill="#b3d334"><path d="m36.22 28.56-.44 1-4.78-2.28-5.22-2.46-4.78-2.27-5.41-2.55-.23-.14.4-.9 5.32 2.48c1 .49 2.06 1 3.09 1.47l6 2.81 3.37 1.59c.81.39 1.63.76 2.44 1.14.08.04.16.08.24.11z"/><path d="m22.38 44.64-.21-1 2.67-.64 3.26-.73 6.12-1.39c.12-.04.24-.08.36-.13l.21 1.05c-.78.17-1.57.33-2.35.51l-5.84 1.36-3.38.79z"/></g></svg>