<svg viewBox="0 0 211.58 202.81" xmlns="http://www.w3.org/2000/svg" xmlns:xlink="http://www.w3.org/1999/xlink"><mask id="a" height="108.63" maskUnits="userSpaceOnUse" width="131.53" x="102.77" y="118.91"><path d="m137.96 192.35 61.15-38.25" fill="none" stroke="#fff" stroke-linecap="round" stroke-linejoin="bevel" stroke-width="70.38"/></mask><mask id="b" height="108.63" maskUnits="userSpaceOnUse" width="131.53" x="104.27" y="111.41"><path d="m139.46 184.85 61.15-38.25" fill="none" stroke="#fff" stroke-linecap="round" stroke-linejoin="bevel" stroke-width="70.38"/></mask><path d="m102.78 139.78-2.53-1.57-2.58 1.6 2.53 1.58z" fill="#f4f6f1"/><path d="m94.99 141.48-2.78 1.74 2.52 1.57 2.79-1.73z" fill="#d3dcdd"/><path d="m105.25 138.24-2.52-1.58-2.48 1.55 2.53 1.57z" fill="none"/><path d="m105.4 141.42 2.48-1.55-2.63-1.63-2.47 1.54z" fill="none"/><path d="m100.2 141.39-2.53-1.58-2.68 1.67 2.53 1.58z" fill="#d3dcdd"/><path d="m108.4 146.5 2.57-1.61-2.84-1.77-2.57 1.61z" fill="#bbc4ca"/><path d="m102.88 146.4 2.84 1.77 2.68-1.67-2.84-1.77z" fill="#bbc4ca"/><path d="m102.83 143.03 2.73 1.7 2.57-1.61-2.73-1.7z" fill="#d3dcdd"/><path d="m108.13 143.12 2.48-1.54-2.73-1.71-2.48 1.55z" fill="none"/><path d="m100.04 151.71-2.84-1.77-3.01 1.87 2.84 1.77z" fill="#00b9da"/><path d="m99.98 155.42-2.95-1.84-3.13 1.95 2.95 1.84z" fill="#00b9da"/><path d="m100.15 144.7-2.63-1.64-2.79 1.73 2.63 1.64z" fill="#d3dcdd"/><path d="m93.9 155.53-3.25 2.03 2.95 1.84 3.25-2.03z" fill="#66bc46"/><path d="m94.19 151.81-3.13 1.95 2.84 1.77 3.13-1.95z" fill="#00b9da"/><path d="m94.73 144.79-2.89 1.81 2.63 1.64 2.89-1.81z" fill="#bbc4ca"/><path d="m94.47 148.24-3.01 1.87 2.73 1.7 3.01-1.87z" fill="#bbc4ca"/><path d="m100.09 148.13-2.73-1.7-2.89 1.81 2.73 1.7z" fill="#bbc4ca"/><path d="m105.88 151.74-2.95-1.84-2.89 1.81 2.95 1.84z" fill="#00b9da"/><path d="m100.09 148.13-2.89 1.81 2.84 1.77 2.89-1.81z" fill="#bbc4ca"/><path d="m105.72 148.17-2.84-1.77-2.79 1.73 2.84 1.77z" fill="#bbc4ca"/><path d="m100.04 151.71-3.01 1.87 2.95 1.84 3.01-1.87z" fill="#00b9da"/><path d="m96.85 157.37-3.25 2.03 3.07 1.91 3.25-2.03z" fill="#3db65b"/><path d="m100.15 144.7-2.79 1.73 2.73 1.7 2.79-1.73z" fill="#bbc4ca"/><path d="m105.4 141.42-2.62-1.64-2.58 1.61 2.63 1.64z" fill="#d3dcdd"/><path d="m105.56 144.73-2.73-1.7-2.68 1.67 2.73 1.7z" fill="#bbc4ca"/><path d="m100.2 141.39-2.68 1.67 2.63 1.64 2.68-1.67z" fill="#d3dcdd"/><path d="m106.06 155.46-3.07-1.91-3.01 1.87 3.07 1.92z" fill="#00b9da"/><path d="m108.95 153.66 2.79-1.74-3.07-1.91-2.79 1.73z" fill="#00b9da"/><path d="m102.99 153.55 3.07 1.91 2.89-1.8-3.07-1.92z" fill="#00b9da"/><path d="m102.93 149.9 2.95 1.84 2.79-1.73-2.95-1.84z" fill="#bbc4ca"/><path d="m109.24 157.45 2.9-1.81-3.19-1.98-2.89 1.8z" fill="#66bc46"/><path d="m103.05 157.34 3.19 1.98 3-1.87-3.18-1.99z" fill="#66bc46"/><path d="m108.67 150.01 2.68-1.67-2.95-1.84-2.68 1.67z" fill="#bbc4ca"/><path d="m99.98 155.42-3.13 1.95 3.07 1.91 3.13-1.94z" fill="#66bc46"/><path d="m99.92 159.28 3.19 1.99 3.13-1.95-3.19-1.98z" fill="#66bc46"/><path d="m99.86 163.3-3.38 2.1 3.31 2.07 3.38-2.11z" fill="none"/><path d="m94.73 144.79-2.52-1.57-2.9 1.8 2.53 1.58z" fill="#d3dcdd"/><path d="m89.77 141.7-2.89 1.81 2.43 1.51 2.9-1.8z" fill="none"/><path d="m89.31 145.02-3.01 1.88 2.53 1.57 3.01-1.87z" fill="#d3dcdd"/><path d="m88.83 148.47-3.13 1.95 2.63 1.64 3.13-1.95z" fill="#bbc4ca"/><path d="m94.47 148.24-2.63-1.64-3.01 1.87 2.63 1.64z" fill="#bbc4ca"/><path d="m102.73 136.66-2.43-1.52-2.48 1.55 2.43 1.52z" fill="none"/><path d="m94.99 141.48-2.43-1.51-2.79 1.73 2.44 1.52z" fill="none"/><path d="m97.67 139.81-2.43-1.51-2.68 1.67 2.43 1.51z" fill="none"/><path d="m100.25 138.21-2.43-1.52-2.58 1.61 2.43 1.51z" fill="none"/><path d="m93.6 159.4-3.38 2.1 3.07 1.92 3.38-2.11z" fill="none"/><path d="m94.19 151.81-2.73-1.7-3.13 1.95 2.73 1.7z" fill="#3db65b"/><path d="m90.65 157.56-3.38 2.11 2.95 1.83 3.38-2.1z" fill="none"/><path d="m96.67 161.31-3.38 2.11 3.19 1.98 3.38-2.1z" fill="none"/><path d="m88.33 152.06-3.25 2.03 2.73 1.7 3.25-2.03z" fill="#66bc46"/><path d="m93.9 155.53-2.84-1.77-3.25 2.03 2.84 1.77z" fill="#66bc46"/><path d="m87.81 155.79-3.38 2.11 2.84 1.77 3.38-2.11z" fill="none"/><path d="m108.95 153.66 3.19 1.98 2.78-1.73-3.18-1.99z" fill="#66bc46"/><path d="m115.45 157.71 2.79-1.74-3.32-2.06-2.78 1.73z" fill="none"/><path d="m105.11 135.17-2.43-1.51-2.38 1.48 2.43 1.52z" fill="none"/><path d="m99.92 159.28-3.25 2.03 3.19 1.99 3.25-2.03z" fill="#3db65b"/><path d="m108.67 150.01 3.07 1.91 2.67-1.67-3.06-1.91z" fill="#66bc46"/><path d="m114.92 153.91 2.68-1.67-3.19-1.99-2.67 1.67z" fill="#66bc46"/><path d="m99.86 163.3 3.31 2.06 3.25-2.02-3.31-2.07z" fill="none"/><path d="m106.24 159.32 3.31 2.07 3.01-1.88-3.32-2.06z" fill="none"/><path d="m103.11 161.27 3.31 2.07 3.13-1.95-3.31-2.07z" fill="none"/><path d="m109.24 157.45 3.32 2.06 2.89-1.8-3.31-2.07z" fill="none"/><path d="m113.45 143.35 2.39-1.49-2.84-1.77-2.39 1.49z" fill="none"/><path d="m114.41 150.25 2.58-1.61-3.07-1.91-2.57 1.61z" fill="none"/><path d="m105.25 138.24 2.39-1.49-2.53-1.58-2.38 1.49z" fill="none"/><path d="m107.88 139.87 2.39-1.48-2.63-1.64-2.39 1.49z" fill="none"/><path d="m108.4 146.5 2.95 1.84 2.57-1.61-2.95-1.84z" fill="#bbc4ca"/><g fill="none"><path d="m113.92 146.73 2.48-1.54-2.95-1.84-2.48 1.54z"/><path d="m108.13 143.12 2.84 1.77 2.48-1.54-2.84-1.77z"/><path d="m102.78 139.78-2.53-1.57-2.58 1.6 2.53 1.58z" stroke="#fff" stroke-miterlimit="10" stroke-width=".3"/><path d="m94.99 141.48-2.78 1.74 2.52 1.57 2.79-1.73z" stroke="#fff" stroke-miterlimit="10" stroke-width=".3"/><path d="m100.25 138.21 2.53 1.57" stroke="#fff" stroke-miterlimit="10" stroke-width=".3"/><path d="m105.4 141.42-2.62-1.64" stroke="#fff" stroke-miterlimit="10" stroke-width=".3"/><path d="m100.2 141.39-2.53-1.58-2.68 1.67 2.53 1.58z" stroke="#fff" stroke-miterlimit="10" stroke-width=".3"/><path d="m108.4 146.5 2.57-1.61-2.84-1.77-2.57 1.61z" stroke="#fff" stroke-miterlimit="10" stroke-width=".3"/><path d="m102.88 146.4 2.84 1.77 2.68-1.67-2.84-1.77z" stroke="#fff" stroke-miterlimit="10" stroke-width=".3"/><path d="m102.83 143.03 2.73 1.7 2.57-1.61-2.73-1.7z" stroke="#fff" stroke-miterlimit="10" stroke-width=".3"/><path d="m108.13 143.12-2.73-1.7" stroke="#fff" stroke-miterlimit="10" stroke-width=".3"/><path d="m100.04 151.71-2.84-1.77-3.01 1.87 2.84 1.77z" stroke="#fff" stroke-miterlimit="10" stroke-width=".3"/><path d="m99.98 155.42-2.95-1.84-3.13 1.95 2.95 1.84z" stroke="#fff" stroke-miterlimit="10" stroke-width=".3"/><path d="m100.15 144.7-2.63-1.64-2.79 1.73 2.63 1.64z" stroke="#fff" stroke-miterlimit="10" stroke-width=".3"/><path d="m93.9 155.53-3.25 2.03 2.95 1.84 3.25-2.03z" stroke="#fff" stroke-miterlimit="10" stroke-width=".3"/><path d="m94.19 151.81-3.13 1.95 2.84 1.77 3.13-1.95z" stroke="#fff" stroke-miterlimit="10" stroke-width=".3"/><path d="m94.73 144.79-2.89 1.81 2.63 1.64 2.89-1.81z" stroke="#fff" stroke-miterlimit="10" stroke-width=".3"/><path d="m94.47 148.24-3.01 1.87 2.73 1.7 3.01-1.87z" stroke="#fff" stroke-miterlimit="10" stroke-width=".3"/><path d="m100.09 148.13-2.73-1.7-2.89 1.81 2.73 1.7z" stroke="#fff" stroke-miterlimit="10" stroke-width=".3"/><path d="m105.88 151.74-2.95-1.84-2.89 1.81 2.95 1.84z" stroke="#fff" stroke-miterlimit="10" stroke-width=".3"/><path d="m100.09 148.13-2.89 1.81 2.84 1.77 2.89-1.81z" stroke="#fff" stroke-miterlimit="10" stroke-width=".3"/><path d="m105.72 148.17-2.84-1.77-2.79 1.73 2.84 1.77z" stroke="#fff" stroke-miterlimit="10" stroke-width=".3"/><path d="m100.04 151.71-3.01 1.87 2.95 1.84 3.01-1.87z" stroke="#fff" stroke-miterlimit="10" stroke-width=".3"/><path d="m96.85 157.37-3.25 2.03 3.07 1.91 3.25-2.03z" stroke="#fff" stroke-miterlimit="10" stroke-width=".3"/><path d="m100.15 144.7-2.79 1.73 2.73 1.7 2.79-1.73z" stroke="#fff" stroke-miterlimit="10" stroke-width=".3"/><path d="m105.4 141.42-2.62-1.64-2.58 1.61 2.63 1.64z" stroke="#fff" stroke-miterlimit="10" stroke-width=".3"/><path d="m105.56 144.73-2.73-1.7-2.68 1.67 2.73 1.7z" stroke="#fff" stroke-miterlimit="10" stroke-width=".3"/><path d="m100.2 141.39-2.68 1.67 2.63 1.64 2.68-1.67z" stroke="#fff" stroke-miterlimit="10" stroke-width=".3"/><path d="m106.06 155.46-3.07-1.91-3.01 1.87 3.07 1.92z" stroke="#fff" stroke-miterlimit="10" stroke-width=".3"/><path d="m108.95 153.66 2.79-1.74-3.07-1.91-2.79 1.73z" stroke="#fff" stroke-miterlimit="10" stroke-width=".3"/><path d="m102.99 153.55 3.07 1.91 2.89-1.8-3.07-1.92z" stroke="#fff" stroke-miterlimit="10" stroke-width=".3"/><path d="m102.93 149.9 2.95 1.84 2.79-1.73-2.95-1.84z" stroke="#fff" stroke-miterlimit="10" stroke-width=".3"/><path d="m109.24 157.45 2.9-1.81-3.19-1.98-2.89 1.8z" stroke="#fff" stroke-miterlimit="10" stroke-width=".3"/><path d="m103.05 157.34 3.19 1.98 3-1.87-3.18-1.99z" stroke="#fff" stroke-miterlimit="10" stroke-width=".3"/><path d="m108.67 150.01 2.68-1.67-2.95-1.84-2.68 1.67z" stroke="#fff" stroke-miterlimit="10" stroke-width=".3"/><path d="m99.98 155.42-3.13 1.95 3.07 1.91 3.13-1.94z" stroke="#fff" stroke-miterlimit="10" stroke-width=".3"/><path d="m99.92 159.28 3.19 1.99 3.13-1.95-3.19-1.98z" stroke="#fff" stroke-miterlimit="10" stroke-width=".3"/><path d="m94.73 144.79-2.52-1.57-2.9 1.8 2.53 1.58z" stroke="#fff" stroke-miterlimit="10" stroke-width=".3"/><path d="m89.31 145.02 2.9-1.8" stroke="#fff" stroke-miterlimit="10" stroke-width=".3"/><path d="m89.31 145.02-3.01 1.88 2.53 1.57 3.01-1.87z" stroke="#fff" stroke-miterlimit="10" stroke-width=".3"/><path d="m88.83 148.47-3.13 1.95 2.63 1.64 3.13-1.95z" stroke="#fff" stroke-miterlimit="10" stroke-width=".3"/><path d="m94.47 148.24-2.63-1.64-3.01 1.87 2.63 1.64z" stroke="#fff" stroke-miterlimit="10" stroke-width=".3"/><path d="m94.99 141.48-2.78 1.74" stroke="#fff" stroke-miterlimit="10" stroke-width=".3"/><path d="m97.67 139.81-2.68 1.67" stroke="#fff" stroke-miterlimit="10" stroke-width=".3"/><path d="m100.25 138.21-2.58 1.6" stroke="#fff" stroke-miterlimit="10" stroke-width=".3"/><path d="m93.6 159.4 3.07 1.91" stroke="#fff" stroke-miterlimit="10" stroke-width=".3"/><path d="m94.19 151.81-2.73-1.7-3.13 1.95 2.73 1.7z" stroke="#fff" stroke-miterlimit="10" stroke-width=".3"/><path d="m90.65 157.56 2.95 1.84" stroke="#fff" stroke-miterlimit="10" stroke-width=".3"/><path d="m96.67 161.31 3.19 1.99" stroke="#fff" stroke-miterlimit="10" stroke-width=".3"/><path d="m88.33 152.06-3.25 2.03 2.73 1.7 3.25-2.03z" stroke="#fff" stroke-miterlimit="10" stroke-width=".3"/><path d="m93.9 155.53-2.84-1.77-3.25 2.03 2.84 1.77z" stroke="#fff" stroke-miterlimit="10" stroke-width=".3"/><path d="m87.81 155.79 2.84 1.77" stroke="#fff" stroke-miterlimit="10" stroke-width=".3"/><path d="m108.95 153.66 3.19 1.98 2.78-1.73-3.18-1.99z" stroke="#fff" stroke-miterlimit="10" stroke-width=".3"/><path d="m114.92 153.91-2.78 1.73" stroke="#fff" stroke-miterlimit="10" stroke-width=".3"/><path d="m99.92 159.28-3.25 2.03 3.19 1.99 3.25-2.03z" stroke="#fff" stroke-miterlimit="10" stroke-width=".3"/><path d="m108.67 150.01 3.07 1.91 2.67-1.67-3.06-1.91z" stroke="#fff" stroke-miterlimit="10" stroke-width=".3"/><path d="m114.92 153.91 2.68-1.67-3.19-1.99-2.67 1.67z" stroke="#fff" stroke-miterlimit="10" stroke-width=".3"/><path d="m99.86 163.3 3.25-2.03" stroke="#fff" stroke-miterlimit="10" stroke-width=".3"/><path d="m106.24 159.32 3-1.87" stroke="#fff" stroke-miterlimit="10" stroke-width=".3"/><path d="m103.11 161.27 3.13-1.95" stroke="#fff" stroke-miterlimit="10" stroke-width=".3"/><path d="m109.24 157.45 2.9-1.81" stroke="#fff" stroke-miterlimit="10" stroke-width=".3"/><path d="m113.92 146.73-2.57 1.61" stroke="#fff" stroke-miterlimit="10" stroke-width=".3"/><path d="m108.4 146.5 2.95 1.84 2.57-1.61-2.95-1.84z" stroke="#fff" stroke-miterlimit="10" stroke-width=".3"/><path d="m113.92 146.73-2.95-1.84" stroke="#fff" stroke-miterlimit="10" stroke-width=".3"/><path d="m108.13 143.12 2.84 1.77" stroke="#fff" stroke-miterlimit="10" stroke-width=".3"/><g opacity="0" stroke="#fff" stroke-width=".3"><path d="m102.78 139.78-2.53-1.57-2.58 1.6 2.53 1.58z"/><path d="m94.99 141.48-2.78 1.74 2.52 1.57 2.79-1.73z"/><path d="m100.25 138.21 2.53 1.57"/><path d="m105.4 141.42-2.62-1.64"/><path d="m100.2 141.39-2.53-1.58-2.68 1.67 2.53 1.58z"/><path d="m108.4 146.5 2.57-1.61-2.84-1.77-2.57 1.61z"/><path d="m102.88 146.4 2.84 1.77 2.68-1.67-2.84-1.77z"/><path d="m102.83 143.03 2.73 1.7 2.57-1.61-2.73-1.7z"/><path d="m108.13 143.12-2.73-1.7"/><path d="m100.04 151.71-2.84-1.77-3.01 1.87 2.84 1.77z"/><path d="m99.98 155.42-2.95-1.84-3.13 1.95 2.95 1.84z"/><path d="m100.15 144.7-2.63-1.64-2.79 1.73 2.63 1.64z"/><path d="m93.9 155.53-3.25 2.03 2.95 1.84 3.25-2.03z"/><path d="m94.19 151.81-3.13 1.95 2.84 1.77 3.13-1.95z"/><path d="m94.73 144.79-2.89 1.81 2.63 1.64 2.89-1.81z"/><path d="m94.47 148.24-3.01 1.87 2.73 1.7 3.01-1.87z"/><path d="m100.09 148.13-2.73-1.7-2.89 1.81 2.73 1.7z"/><path d="m105.88 151.74-2.95-1.84-2.89 1.81 2.95 1.84z"/><path d="m100.09 148.13-2.89 1.81 2.84 1.77 2.89-1.81z"/><path d="m105.72 148.17-2.84-1.77-2.79 1.73 2.84 1.77z"/><path d="m100.04 151.71-3.01 1.87 2.95 1.84 3.01-1.87z"/><path d="m96.85 157.37-3.25 2.03 3.07 1.91 3.25-2.03z"/><path d="m100.15 144.7-2.79 1.73 2.73 1.7 2.79-1.73z"/><path d="m105.4 141.42-2.62-1.64-2.58 1.61 2.63 1.64z"/><path d="m105.56 144.73-2.73-1.7-2.68 1.67 2.73 1.7z"/><path d="m100.2 141.39-2.68 1.67 2.63 1.64 2.68-1.67z"/><path d="m106.06 155.46-3.07-1.91-3.01 1.87 3.07 1.92z"/><path d="m108.95 153.66 2.79-1.74-3.07-1.91-2.79 1.73z"/><path d="m102.99 153.55 3.07 1.91 2.89-1.8-3.07-1.92z"/><path d="m102.93 149.9 2.95 1.84 2.79-1.73-2.95-1.84z"/><path d="m109.24 157.45 2.9-1.81-3.19-1.98-2.89 1.8z"/><path d="m103.05 157.34 3.19 1.98 3-1.87-3.18-1.99z"/><path d="m108.67 150.01 2.68-1.67-2.95-1.84-2.68 1.67z"/><path d="m99.98 155.42-3.13 1.95 3.07 1.91 3.13-1.94z"/><path d="m99.92 159.28 3.19 1.99 3.13-1.95-3.19-1.98z"/><path d="m94.73 144.79-2.52-1.57-2.9 1.8 2.53 1.58z"/><path d="m89.31 145.02 2.9-1.8"/><path d="m89.31 145.02-3.01 1.88 2.53 1.57 3.01-1.87z"/><path d="m88.83 148.47-3.13 1.95 2.63 1.64 3.13-1.95z"/><path d="m94.47 148.24-2.63-1.64-3.01 1.87 2.63 1.64z"/><path d="m94.99 141.48-2.78 1.74"/><path d="m97.67 139.81-2.68 1.67"/><path d="m100.25 138.21-2.58 1.6"/><path d="m93.6 159.4 3.07 1.91"/><path d="m94.19 151.81-2.73-1.7-3.13 1.95 2.73 1.7z"/><path d="m90.65 157.56 2.95 1.84"/><path d="m96.67 161.31 3.19 1.99"/><path d="m88.33 152.06-3.25 2.03 2.73 1.7 3.25-2.03z"/><path d="m93.9 155.53-2.84-1.77-3.25 2.03 2.84 1.77z"/><path d="m87.81 155.79 2.84 1.77"/><path d="m108.95 153.66 3.19 1.98 2.78-1.73-3.18-1.99z"/><path d="m114.92 153.91-2.78 1.73"/><path d="m99.92 159.28-3.25 2.03 3.19 1.99 3.25-2.03z"/><path d="m108.67 150.01 3.07 1.91 2.67-1.67-3.06-1.91z"/><path d="m114.92 153.91 2.68-1.67-3.19-1.99-2.67 1.67z"/><path d="m99.86 163.3 3.25-2.03"/><path d="m106.24 159.32 3-1.87"/><path d="m103.11 161.27 3.13-1.95"/><path d="m109.24 157.45 2.9-1.81"/><path d="m113.92 146.73-2.57 1.61"/><path d="m108.4 146.5 2.95 1.84 2.57-1.61-2.95-1.84z"/><path d="m113.92 146.73-2.95-1.84"/><path d="m108.13 143.12 2.84 1.77"/></g></g><path d="m110.57 144.18 4.18-2.6-4.79-2.99-4.18 2.61z" fill="#fff200"/><path d="m109.26 155.84 6.15-3.84-7.05-4.39-6.15 3.84z" fill="#fff200"/><g opacity=".18"><path d="m101.23 81.58 74.21 46.42-78.64 49.19-74.21-46.42zm0-14.13-6.35 3.97-78.64 49.19-16.24 10.16 16.24 10.16 74.21 46.42 6.35 3.97 6.35-3.97 78.64-49.19 16.24-10.16-16.24-10.16-74.21-46.42z" fill="#808285"/><g mask="url(#a)"><path d="m143.58 158.97 60.51 37.85" fill="none" stroke="#808285" stroke-linecap="round" stroke-linejoin="bevel" stroke-width="11.98"/></g></g><path d="m102.73 74.07 74.21 46.42-78.64 49.19-74.21-46.42zm0-14.13-6.35 3.97-78.65 49.2-16.23 10.15 16.24 10.16 74.21 46.42 6.35 3.97 6.35-3.97 78.64-49.19 16.24-10.16-16.24-10.16-74.21-46.42-6.35-3.97z" fill="#808285"/><g mask="url(#b)"><path d="m145.08 151.46 60.51 37.85" fill="none" stroke="#808285" stroke-linecap="round" stroke-linejoin="bevel" stroke-width="11.98"/></g><path d="m176.9 120.46-74.21-46.41-78.65 49.19 74.21 46.41z" fill="#27aae1" opacity=".6"/><path d="m137.39 47.36 18.81-11.72-21.54-13.43-18.81 11.73z" fill="#fff200"/><path d="m102.31 27.56-11.38-7.09-11.6 7.23 11.38 7.09z" fill="#f4f6f1"/><path d="m67.28 35.21-12.53 7.81 11.37 7.09 12.53-7.81z" fill="#d3dcdd"/><path d="m113.47 20.6-11.38-7.09-11.16 6.96 11.38 7.09z" fill="none"/><path d="m114.13 34.93 11.16-6.96-11.82-7.37-11.16 6.96z" fill="none"/><path d="m90.71 34.79-11.38-7.09-12.05 7.51 11.37 7.09z" fill="#d3dcdd"/><path d="m127.6 57.78 11.6-7.23-12.78-7.96-11.59 7.23z" fill="#bbc4ca"/><path d="m102.77 57.33 12.78 7.97 12.05-7.52-12.77-7.96z" fill="#bbc4ca"/><path d="m102.53 42.16 12.3 7.66 11.59-7.23-12.29-7.66z" fill="#d3dcdd"/><path d="m126.42 42.59 11.16-6.96-12.29-7.66-11.16 6.96z" fill="none"/><path d="m89.99 81.23-12.78-7.97-13.54 8.44 12.78 7.97z" fill="#00b9da"/><path d="m89.73 97.94-13.28-8.27-14.07 8.77 13.28 8.28z" fill="#00b9da"/><path d="m90.48 49.67-11.83-7.37-12.53 7.81 11.83 7.37z" fill="#d3dcdd"/><path d="m62.38 98.44-14.63 9.12 13.28 8.27 14.63-9.11z" fill="#66bc46"/><path d="m63.67 81.7-14.07 8.77 12.78 7.97 14.07-8.77z" fill="#00b9da"/><path d="m66.12 50.11-13.02 8.12 11.82 7.37 13.03-8.12z" fill="#bbc4ca"/><path d="m64.92 65.6-13.54 8.44 12.29 7.66 13.54-8.44z" fill="#bbc4ca"/><path d="m90.24 65.14-12.29-7.66-13.03 8.12 12.29 7.66z" fill="#bbc4ca"/><path d="m116.29 81.39-13.28-8.28-13.02 8.12 13.28 8.27z" fill="#00b9da"/><path d="m90.24 65.14-13.03 8.12 12.78 7.97 13.02-8.12z" fill="#bbc4ca"/><path d="m115.55 65.3-12.78-7.97-12.53 7.81 12.77 7.97z" fill="#bbc4ca"/><path d="m89.99 81.23-13.54 8.44 13.28 8.27 13.54-8.44z" fill="#00b9da"/><path d="m75.66 106.72-14.63 9.11 13.8 8.61 14.63-9.12z" fill="#3db65b"/><path d="m90.48 49.67-12.53 7.81 12.29 7.66 12.53-7.81z" fill="#bbc4ca"/><path d="m114.13 34.93-11.82-7.37-11.6 7.23 11.82 7.37z" fill="#d3dcdd"/><path d="m114.83 49.82-12.3-7.66-12.05 7.51 12.29 7.66z" fill="#bbc4ca"/><path d="m90.71 34.79-12.06 7.51 11.83 7.37 12.05-7.51z" fill="#d3dcdd"/><path d="m117.07 98.11-13.8-8.61-13.54 8.44 13.8 8.61z" fill="#00b9da"/><path d="m130.1 89.99 12.53-7.81-13.81-8.61-12.53 7.82z" fill="#00b9da"/><path d="m103.27 89.5 13.8 8.61 13.03-8.12-13.81-8.6z" fill="#00b9da"/><path d="m103.01 73.11 13.28 8.28 12.53-7.82-13.27-8.27z" fill="#bbc4ca"/><path d="m131.42 107.05 13.03-8.12-14.35-8.94-13.03 8.12z" fill="#66bc46"/><path d="m103.53 106.55 14.35 8.94 13.54-8.44-14.35-8.94z" fill="#66bc46"/><path d="m128.82 73.57 12.06-7.51-13.28-8.28-12.05 7.52z" fill="#bbc4ca"/><path d="m89.73 97.94-14.07 8.78 13.8 8.6 14.07-8.77z" fill="#66bc46"/><path d="m89.46 115.32 14.35 8.94 14.07-8.77-14.35-8.94z" fill="#66bc46"/><path d="m89.18 133.38-15.21 9.48 14.92 9.3 15.2-9.48z" fill="none"/><path d="m66.12 50.11-11.37-7.09-13.03 8.12 11.38 7.09z" fill="#d3dcdd"/><path d="m43.8 36.2-13.02 8.12 10.94 6.82 13.03-8.12z" fill="none"/><path d="m41.72 51.14-13.54 8.44 11.38 7.09 13.54-8.44z" fill="#d3dcdd"/><path d="m39.56 66.67-14.07 8.77 11.82 7.37 14.07-8.77z" fill="#bbc4ca"/><path d="m64.92 65.6-11.82-7.37-13.54 8.44 11.82 7.37z" fill="#bbc4ca"/><path d="m102.09 13.51-10.94-6.82-11.16 6.96 10.94 6.82z" fill="none"/><path d="m67.28 35.21-10.94-6.82-12.54 7.81 10.95 6.82z" fill="none"/><path d="m79.33 27.7-10.94-6.82-12.05 7.51 10.94 6.82z" fill="none"/><path d="m90.93 20.47-10.94-6.82-11.6 7.23 10.94 6.82z" fill="none"/><path d="m61.03 115.83-15.21 9.48 13.81 8.61 15.2-9.48z" fill="none"/><path d="m63.67 81.7-12.29-7.66-14.07 8.77 12.29 7.66z" fill="#3db65b"/><path d="m47.75 107.56-15.21 9.47 13.28 8.28 15.21-9.48z" fill="none"/><path d="m74.83 124.44-15.2 9.48 14.34 8.94 15.21-9.48z" fill="none"/><path d="m37.31 82.81-14.63 9.12 12.29 7.66 14.63-9.12z" fill="#66bc46"/><path d="m62.38 98.44-12.78-7.97-14.63 9.12 12.78 7.97z" fill="#66bc46"/><path d="m34.97 99.59-15.2 9.48 12.77 7.96 15.21-9.47z" fill="none"/><path d="m130.1 89.99 14.35 8.94 12.53-7.81-14.35-8.94z" fill="#66bc46"/><path d="m159.36 108.23 12.53-7.81-14.91-9.3-12.53 7.81z" fill="none"/><path d="m112.82 6.82-10.94-6.82-10.73 6.69 10.94 6.82z" fill="none"/><path d="m89.46 115.32-14.63 9.12 14.35 8.94 14.63-9.12z" fill="#3db65b"/><path d="m128.82 73.57 13.81 8.61 12.05-7.52-13.8-8.6z" fill="#66bc46"/><path d="m156.98 91.12 12.05-7.51-14.35-8.95-12.05 7.52z" fill="#66bc46"/><path d="m89.18 133.38 14.91 9.3 14.63-9.12-14.91-9.3z" fill="none"/><path d="m117.88 115.49 14.92 9.3 13.53-8.44-14.91-9.3z" fill="none"/><path d="m103.81 124.26 14.91 9.3 14.08-8.77-14.92-9.3z" fill="none"/><path d="m131.42 107.05 14.91 9.3 13.03-8.12-14.91-9.3z" fill="none"/><path d="m150.36 43.6 10.73-6.69-12.78-7.97-10.73 6.69z" fill="none"/><path d="m154.68 74.66 11.6-7.22-13.8-8.61-11.6 7.23z" fill="none"/><path d="m113.47 20.6 10.73-6.69-11.38-7.09-10.73 6.69z" fill="none"/><path d="m125.29 27.97 10.73-6.69-11.82-7.37-10.73 6.69z" fill="none"/><path d="m127.6 57.78 13.28 8.28 11.6-7.23-13.28-8.28z" fill="#bbc4ca"/><path d="m152.48 58.83 11.16-6.95-13.28-8.28-11.16 6.95z" fill="none"/><path d="m126.42 42.59 12.78 7.96 11.16-6.95-12.78-7.97z" fill="none"/><path d="m102.31 27.56-11.38-7.09-11.6 7.23 11.38 7.09z" fill="none" stroke="#fff" stroke-miterlimit="10" stroke-width="1.35"/><path d="m67.28 35.21-12.53 7.81 11.37 7.09 12.53-7.81z" fill="none" stroke="#fff" stroke-miterlimit="10" stroke-width="1.35"/><path d="m90.93 20.47 11.38 7.09" fill="none" stroke="#fff" stroke-miterlimit="10" stroke-width="1.35"/><path d="m114.13 34.93-11.82-7.37" fill="none" stroke="#fff" stroke-miterlimit="10" stroke-width="1.35"/><path d="m90.71 34.79-11.38-7.09-12.05 7.51 11.37 7.09z" fill="none" stroke="#fff" stroke-miterlimit="10" stroke-width="1.35"/><path d="m127.6 57.78 11.6-7.23-12.78-7.96-11.59 7.23z" fill="none" stroke="#fff" stroke-miterlimit="10" stroke-width="1.35"/><path d="m102.77 57.33 12.78 7.97 12.05-7.52-12.77-7.96z" fill="none" stroke="#fff" stroke-miterlimit="10" stroke-width="1.35"/><path d="m102.53 42.16 12.3 7.66 11.59-7.23-12.29-7.66z" fill="none" stroke="#fff" stroke-miterlimit="10" stroke-width="1.35"/><path d="m126.42 42.59-12.29-7.66" fill="none" stroke="#fff" stroke-miterlimit="10" stroke-width="1.35"/><path d="m89.99 81.23-12.78-7.97-13.54 8.44 12.78 7.97z" fill="none" stroke="#fff" stroke-miterlimit="10" stroke-width="1.35"/><path d="m89.73 97.94-13.28-8.27-14.07 8.77 13.28 8.28z" fill="none" stroke="#fff" stroke-miterlimit="10" stroke-width="1.35"/><path d="m90.48 49.67-11.83-7.37-12.53 7.81 11.83 7.37z" fill="none" stroke="#fff" stroke-miterlimit="10" stroke-width="1.35"/><path d="m62.38 98.44-14.63 9.12 13.28 8.27 14.63-9.11z" fill="none" stroke="#fff" stroke-miterlimit="10" stroke-width="1.35"/><path d="m63.67 81.7-14.07 8.77 12.78 7.97 14.07-8.77z" fill="none" stroke="#fff" stroke-miterlimit="10" stroke-width="1.35"/><path d="m66.12 50.11-13.02 8.12 11.82 7.37 13.03-8.12z" fill="none" stroke="#fff" stroke-miterlimit="10" stroke-width="1.35"/><path d="m64.92 65.6-13.54 8.44 12.29 7.66 13.54-8.44z" fill="none" stroke="#fff" stroke-miterlimit="10" stroke-width="1.35"/><path d="m90.24 65.14-12.29-7.66-13.03 8.12 12.29 7.66z" fill="none" stroke="#fff" stroke-miterlimit="10" stroke-width="1.35"/><path d="m116.29 81.39-13.28-8.28-13.02 8.12 13.28 8.27z" fill="none" stroke="#fff" stroke-miterlimit="10" stroke-width="1.35"/><path d="m90.24 65.14-13.03 8.12 12.78 7.97 13.02-8.12z" fill="none" stroke="#fff" stroke-miterlimit="10" stroke-width="1.35"/><path d="m115.55 65.3-12.78-7.97-12.53 7.81 12.77 7.97z" fill="none" stroke="#fff" stroke-miterlimit="10" stroke-width="1.35"/><path d="m89.99 81.23-13.54 8.44 13.28 8.27 13.54-8.44z" fill="none" stroke="#fff" stroke-miterlimit="10" stroke-width="1.35"/><path d="m75.66 106.72-14.63 9.11 13.8 8.61 14.63-9.12z" fill="none" stroke="#fff" stroke-miterlimit="10" stroke-width="1.35"/><path d="m90.48 49.67-12.53 7.81 12.29 7.66 12.53-7.81z" fill="none" stroke="#fff" stroke-miterlimit="10" stroke-width="1.35"/><path d="m114.13 34.93-11.82-7.37-11.6 7.23 11.82 7.37z" fill="none" stroke="#fff" stroke-miterlimit="10" stroke-width="1.35"/><path d="m114.83 49.82-12.3-7.66-12.05 7.51 12.29 7.66z" fill="none" stroke="#fff" stroke-miterlimit="10" stroke-width="1.35"/><path d="m90.71 34.79-12.06 7.51 11.83 7.37 12.05-7.51z" fill="none" stroke="#fff" stroke-miterlimit="10" stroke-width="1.35"/><path d="m117.07 98.11-13.8-8.61-13.54 8.44 13.8 8.61z" fill="none" stroke="#fff" stroke-miterlimit="10" stroke-width="1.35"/><path d="m130.1 89.99 12.53-7.81-13.81-8.61-12.53 7.82z" fill="none" stroke="#fff" stroke-miterlimit="10" stroke-width="1.35"/><path d="m103.27 89.5 13.8 8.61 13.03-8.12-13.81-8.6z" fill="none" stroke="#fff" stroke-miterlimit="10" stroke-width="1.35"/><path d="m103.01 73.11 13.28 8.28 12.53-7.82-13.27-8.27z" fill="none" stroke="#fff" stroke-miterlimit="10" stroke-width="1.35"/><path d="m131.42 107.05 13.03-8.12-14.35-8.94-13.03 8.12z" fill="none" stroke="#fff" stroke-miterlimit="10" stroke-width="1.35"/><path d="m103.53 106.55 14.35 8.94 13.54-8.44-14.35-8.94z" fill="none" stroke="#fff" stroke-miterlimit="10" stroke-width="1.35"/><path d="m128.82 73.57 12.06-7.51-13.28-8.28-12.05 7.52z" fill="none" stroke="#fff" stroke-miterlimit="10" stroke-width="1.35"/><path d="m89.73 97.94-14.07 8.78 13.8 8.6 14.07-8.77z" fill="none" stroke="#fff" stroke-miterlimit="10" stroke-width="1.35"/><path d="m89.46 115.32 14.35 8.94 14.07-8.77-14.35-8.94z" fill="none" stroke="#fff" stroke-miterlimit="10" stroke-width="1.35"/><path d="m66.12 50.11-11.37-7.09-13.03 8.12 11.38 7.09z" fill="none" stroke="#fff" stroke-miterlimit="10" stroke-width="1.35"/><path d="m41.72 51.14 13.03-8.12" fill="none" stroke="#fff" stroke-miterlimit="10" stroke-width="1.35"/><path d="m41.72 51.14-13.54 8.44 11.38 7.09 13.54-8.44z" fill="none" stroke="#fff" stroke-miterlimit="10" stroke-width="1.35"/><path d="m39.56 66.67-14.07 8.77 11.82 7.37 14.07-8.77z" fill="none" stroke="#fff" stroke-miterlimit="10" stroke-width="1.35"/><path d="m64.92 65.6-11.82-7.37-13.54 8.44 11.82 7.37z" fill="none" stroke="#fff" stroke-miterlimit="10" stroke-width="1.35"/><path d="m67.28 35.21-12.53 7.81" fill="none" stroke="#fff" stroke-miterlimit="10" stroke-width="1.35"/><path d="m79.33 27.7-12.05 7.51" fill="none" stroke="#fff" stroke-miterlimit="10" stroke-width="1.35"/><path d="m90.93 20.47-11.6 7.23" fill="none" stroke="#fff" stroke-miterlimit="10" stroke-width="1.35"/><path d="m61.03 115.83 13.8 8.61" fill="none" stroke="#fff" stroke-miterlimit="10" stroke-width="1.35"/><path d="m63.67 81.7-12.29-7.66-14.07 8.77 12.29 7.66z" fill="none" stroke="#fff" stroke-miterlimit="10" stroke-width="1.35"/><path d="m47.75 107.56 13.28 8.27" fill="none" stroke="#fff" stroke-miterlimit="10" stroke-width="1.35"/><path d="m74.83 124.44 14.35 8.94" fill="none" stroke="#fff" stroke-miterlimit="10" stroke-width="1.35"/><path d="m37.31 82.81-14.63 9.12 12.29 7.66 14.63-9.12z" fill="none" stroke="#fff" stroke-miterlimit="10" stroke-width="1.35"/><path d="m62.38 98.44-12.78-7.97-14.63 9.12 12.78 7.97z" fill="none" stroke="#fff" stroke-miterlimit="10" stroke-width="1.35"/><path d="m34.97 99.59 12.78 7.97" fill="none" stroke="#fff" stroke-miterlimit="10" stroke-width="1.35"/><path d="m130.1 89.99 14.35 8.94 12.53-7.81-14.35-8.94z" fill="none" stroke="#fff" stroke-miterlimit="10" stroke-width="1.35"/><path d="m156.98 91.12-12.53 7.81" fill="none" stroke="#fff" stroke-miterlimit="10" stroke-width="1.35"/><path d="m89.46 115.32-14.63 9.12 14.35 8.94 14.63-9.12z" fill="none" stroke="#fff" stroke-miterlimit="10" stroke-width="1.35"/><path d="m128.82 73.57 13.81 8.61 12.05-7.52-13.8-8.6z" fill="none" stroke="#fff" stroke-miterlimit="10" stroke-width="1.35"/><path d="m156.98 91.12 12.05-7.51-14.35-8.95-12.05 7.52z" fill="none" stroke="#fff" stroke-miterlimit="10" stroke-width="1.35"/><path d="m89.18 133.38 14.63-9.12" fill="none" stroke="#fff" stroke-miterlimit="10" stroke-width="1.35"/><path d="m117.88 115.49 13.54-8.44" fill="none" stroke="#fff" stroke-miterlimit="10" stroke-width="1.35"/><path d="m103.81 124.26 14.07-8.77" fill="none" stroke="#fff" stroke-miterlimit="10" stroke-width="1.35"/><path d="m131.42 107.05 13.03-8.12" fill="none" stroke="#fff" stroke-miterlimit="10" stroke-width="1.35"/><path d="m152.48 58.83-11.6 7.23" fill="none" stroke="#fff" stroke-miterlimit="10" stroke-width="1.35"/><path d="m127.6 57.78 13.28 8.28 11.6-7.23-13.28-8.28z" fill="none" stroke="#fff" stroke-miterlimit="10" stroke-width="1.35"/><path d="m152.48 58.83-13.28-8.28" fill="none" stroke="#fff" stroke-miterlimit="10" stroke-width="1.35"/><path d="m126.42 42.59 12.78 7.96" fill="none" stroke="#fff" stroke-miterlimit="10" stroke-width="1.35"/><g fill="none" opacity="0" stroke="#fff" stroke-width="1.35"><path d="m102.31 27.56-11.38-7.09-11.6 7.23 11.38 7.09z"/><path d="m67.28 35.21-12.53 7.81 11.37 7.09 12.53-7.81z"/><path d="m90.93 20.47 11.38 7.09"/><path d="m114.13 34.93-11.82-7.37"/><path d="m90.71 34.79-11.38-7.09-12.05 7.51 11.37 7.09z"/><path d="m127.6 57.78 11.6-7.23-12.78-7.96-11.59 7.23z"/><path d="m102.77 57.33 12.78 7.97 12.05-7.52-12.77-7.96z"/><path d="m102.53 42.16 12.3 7.66 11.59-7.23-12.29-7.66z"/><path d="m126.42 42.59-12.29-7.66"/><path d="m89.99 81.23-12.78-7.97-13.54 8.44 12.78 7.97z"/><path d="m89.73 97.94-13.28-8.27-14.07 8.77 13.28 8.28z"/><path d="m90.48 49.67-11.83-7.37-12.53 7.81 11.83 7.37z"/><path d="m62.38 98.44-14.63 9.12 13.28 8.27 14.63-9.11z"/><path d="m63.67 81.7-14.07 8.77 12.78 7.97 14.07-8.77z"/><path d="m66.12 50.11-13.02 8.12 11.82 7.37 13.03-8.12z"/><path d="m64.92 65.6-13.54 8.44 12.29 7.66 13.54-8.44z"/><path d="m90.24 65.14-12.29-7.66-13.03 8.12 12.29 7.66z"/><path d="m116.29 81.39-13.28-8.28-13.02 8.12 13.28 8.27z"/><path d="m90.24 65.14-13.03 8.12 12.78 7.97 13.02-8.12z"/><path d="m115.55 65.3-12.78-7.97-12.53 7.81 12.77 7.97z"/><path d="m89.99 81.23-13.54 8.44 13.28 8.27 13.54-8.44z"/><path d="m75.66 106.72-14.63 9.11 13.8 8.61 14.63-9.12z"/><path d="m90.48 49.67-12.53 7.81 12.29 7.66 12.53-7.81z"/><path d="m114.13 34.93-11.82-7.37-11.6 7.23 11.82 7.37z"/><path d="m114.83 49.82-12.3-7.66-12.05 7.51 12.29 7.66z"/><path d="m90.71 34.79-12.06 7.51 11.83 7.37 12.05-7.51z"/><path d="m117.07 98.11-13.8-8.61-13.54 8.44 13.8 8.61z"/><path d="m130.1 89.99 12.53-7.81-13.81-8.61-12.53 7.82z"/><path d="m103.27 89.5 13.8 8.61 13.03-8.12-13.81-8.6z"/><path d="m103.01 73.11 13.28 8.28 12.53-7.82-13.27-8.27z"/><path d="m131.42 107.05 13.03-8.12-14.35-8.94-13.03 8.12z"/><path d="m103.53 106.55 14.35 8.94 13.54-8.44-14.35-8.94z"/><path d="m128.82 73.57 12.06-7.51-13.28-8.28-12.05 7.52z"/><path d="m89.73 97.94-14.07 8.78 13.8 8.6 14.07-8.77z"/><path d="m89.46 115.32 14.35 8.94 14.07-8.77-14.35-8.94z"/><path d="m66.12 50.11-11.37-7.09-13.03 8.12 11.38 7.09z"/><path d="m41.72 51.14 13.03-8.12"/><path d="m41.72 51.14-13.54 8.44 11.38 7.09 13.54-8.44z"/><path d="m39.56 66.67-14.07 8.77 11.82 7.37 14.07-8.77z"/><path d="m64.92 65.6-11.82-7.37-13.54 8.44 11.82 7.37z"/><path d="m67.28 35.21-12.53 7.81"/><path d="m79.33 27.7-12.05 7.51"/><path d="m90.93 20.47-11.6 7.23"/><path d="m61.03 115.83 13.8 8.61"/><path d="m63.67 81.7-12.29-7.66-14.07 8.77 12.29 7.66z"/><path d="m47.75 107.56 13.28 8.27"/><path d="m74.83 124.44 14.35 8.94"/><path d="m37.31 82.81-14.63 9.12 12.29 7.66 14.63-9.12z"/><path d="m62.38 98.44-12.78-7.97-14.63 9.12 12.78 7.97z"/><path d="m34.97 99.59 12.78 7.97"/><path d="m130.1 89.99 14.35 8.94 12.53-7.81-14.35-8.94z"/><path d="m156.98 91.12-12.53 7.81"/><path d="m89.46 115.32-14.63 9.12 14.35 8.94 14.63-9.12z"/><path d="m128.82 73.57 13.81 8.61 12.05-7.52-13.8-8.6z"/><path d="m156.98 91.12 12.05-7.51-14.35-8.95-12.05 7.52z"/><path d="m89.18 133.38 14.63-9.12"/><path d="m117.88 115.49 13.54-8.44"/><path d="m103.81 124.26 14.07-8.77"/><path d="m131.42 107.05 13.03-8.12"/><path d="m152.48 58.83-11.6 7.23"/><path d="m127.6 57.78 13.28 8.28 11.6-7.23-13.28-8.28z"/><path d="m152.48 58.83-13.28-8.28"/><path d="m126.42 42.59 12.78 7.96"/></g><path d="m131.47 99.81 27.68-17.25-31.7-19.76-27.68 17.26z" fill="#fff200"/></svg>