<svg viewBox="0 0 72 74.18" xmlns="http://www.w3.org/2000/svg"><path d="m31 74.18-1.16-.18a8.62 8.62 0 0 1 -4.84-2.84 8.45 8.45 0 0 1 -2-4.16 8.67 8.67 0 0 1 1.07-6.18 8.52 8.52 0 0 1 5.51-4.05 8.65 8.65 0 0 1 6.28.79c.27.14.52.3.78.45l.78.58c.47.52 1 1 1.4 1.59a7.87 7.87 0 0 1 1.54 3.68 9.11 9.11 0 0 1 .14 1.73 8.8 8.8 0 0 1 -1.78 5.09 8.69 8.69 0 0 1 -3 2.52 7.86 7.86 0 0 1 -2.64.85l-.8.14z" fill="#8ac64a"/><path d="m0 15.33c.09-.44.18-.88.28-1.33a7.56 7.56 0 0 1 1.61-3.21 7.77 7.77 0 0 1 3.85-2.57 10.4 10.4 0 0 1 1.85-.34 7.54 7.54 0 0 1 4.41.91 8.1 8.1 0 0 1 3.21 3.07 7.89 7.89 0 0 1 1.08 4.9 13.38 13.38 0 0 1 -.53 2.24l-.4.9a8.44 8.44 0 0 1 -1.78 2.21 7.73 7.73 0 0 1 -3.73 1.89 9.12 9.12 0 0 1 -1.57.21 8.16 8.16 0 0 1 -2.93-.52 8.07 8.07 0 0 1 -3.12-2.09 7.85 7.85 0 0 1 -2.09-4.25c0-.23-.09-.46-.14-.69z" fill="#27818a"/><path d="m35.74 12.71a6.77 6.77 0 0 1 -4.26.84 6.49 6.49 0 0 1 -4.33-2.34 6.78 6.78 0 0 1 -1.57-3.68 6.63 6.63 0 0 1 1.42-4.91 6.37 6.37 0 0 1 4.1-2.48c.2 0 .41-.09.61-.14h1.29l1.24.28a6.09 6.09 0 0 1 2.61 1.43 6.81 6.81 0 0 1 2.15 3.6 6.66 6.66 0 0 1 -.27 3.9 6.66 6.66 0 0 1 -1.8 2.65l-.28.24z" fill="#441a57"/><path d="m72 38.11c0 .06-.07.12-.07.18a17.38 17.38 0 0 1 -1 4.88 18.68 18.68 0 0 1 -2.21 4.48 18.9 18.9 0 0 1 -6.59 6 .47.47 0 0 1 -.19.06h-2.12c7.06-3.31 10.87-8.8 11.2-16.63-.33-7.83-4.14-13.32-11.2-16.63a17.46 17.46 0 0 1 2.17 0 2.75 2.75 0 0 1 1.01.55 18.63 18.63 0 0 1 4.05 3.35 18.1 18.1 0 0 1 2.59 3.65 16.72 16.72 0 0 1 1.57 3.76c.29 1.07.44 2.17.65 3.26.06.36.09.72.14 1.08z" fill="#2aab80"/><path d="m68.71 37.31a15.59 15.59 0 0 1 -15.71 15.4 15.64 15.64 0 0 1 -15.51-16.07 15.63 15.63 0 0 1 15.69-15.17 15.08 15.08 0 0 1 10.87 4.47 15.35 15.35 0 0 1 4.66 11.37zm-19.5-3.08 9.2 8.52v-11.17h-1.13v8.42l-9.23-8.54v11.2h1.16zm-3.59-.44a3.22 3.22 0 0 0 -3.72-2.3 2.65 2.65 0 0 0 -1.75 4 3.38 3.38 0 0 0 1.43 1.08c.76.35 1.53.67 2.28 1a1.92 1.92 0 0 1 1 2.7 2.5 2.5 0 0 1 -2.44 1.38 2.31 2.31 0 0 1 -2.19-1.65c-.11-.31-.18-.64-.27-1l-1.09.12a3.93 3.93 0 0 0 1 2.5 3.84 3.84 0 0 0 5.59-.25 3 3 0 0 0 .54-3.25 3.56 3.56 0 0 0 -2-1.7c-.8-.37-1.61-.72-2.4-1.12a1.19 1.19 0 0 1 -.68-.92 1.61 1.61 0 0 1 2.08-1.77 2 2 0 0 1 1.5 1.57zm18 8.88v-9c0-.31-.1-.76.06-.9s.62-.09.94-.09h1.88v-1.1h-6.79v1.08h2.81v10z" fill="#e4df1e"/><path d="m36.22 28.56c.56-.89 1.1-1.79 1.68-2.66a16.34 16.34 0 0 1 1.1-1.38 20.85 20.85 0 0 1 3-2.73l.84-.56c.33-.19.67-.4 1-.56a1.74 1.74 0 0 1 .67-.2h1.84c-7.35 3.53-11.23 9.34-11.12 17.65.7 7.36 4.49 12.51 11.18 15.6h-1.11a4.1 4.1 0 0 1 -1.11 0 5 5 0 0 1 -1.11-.61c-.35-.2-.68-.43-1-.64l-.78-.59c-.47-.42-1-.82-1.41-1.27s-1.07-1.18-1.59-1.79a14.88 14.88 0 0 1 -2.12-3.36c-.51-1.1-.87-2.28-1.29-3.42l-.09-.18-.21-1.05a18.41 18.41 0 0 1 -.32-5 15.49 15.49 0 0 1 .75-4c.25-.74.51-1.47.77-2.2z" fill="#2aab80"/><path d="m42.83 21.23-.84.56q-1.64-2.37-3.25-4.79l-2.82-4.12a1.81 1.81 0 0 0 -.18-.21l.88-.61 1.07 1.63 1.89 2.76 3.1 4.5c.06.12.1.2.15.28z" fill="#b3d334"/><path d="m41.29 51.86.78.59-1.74 2.32c-.48.63-1 1.27-1.45 1.9l-1.47 1.91-.78-.58c.33-.46.66-.92 1-1.38q1.71-2.29 3.45-4.57a1.21 1.21 0 0 1 .21-.19z" fill="#b3d334"/><path d="m22.38 44.64a6.62 6.62 0 0 1 -.32 3.21 6.3 6.3 0 0 1 -3.25 3.55 6.2 6.2 0 0 1 -5.35.12 6.45 6.45 0 0 1 1.29-12.26 6.35 6.35 0 0 1 5.1 1.16 6.48 6.48 0 0 1 2.32 3.25z" fill="#23a581"/><path d="m36.22 28.56-.44 1-4.78-2.28-5.22-2.46-4.78-2.27-5.41-2.55-.23-.14.4-.9 5.32 2.48c1 .49 2.06 1 3.09 1.47l6 2.81 3.37 1.59c.81.39 1.63.76 2.44 1.14a2.76 2.76 0 0 0 .24.11z" fill="#b3d334"/><path d="m22.38 44.64-.21-1 2.67-.64 3.26-.73 6.12-1.39a3.82 3.82 0 0 0 .36-.13l.21 1.05c-.78.17-1.57.33-2.35.51l-5.84 1.36-3.38.79z" fill="#b3d334"/><g fill="#441a57"><path d="m49.21 34.23v8.43h-1.16v-11.2l9.23 8.54v-8.42h1.13v11.17z"/><path d="m45.62 33.79-1.08.39a2 2 0 0 0 -1.54-1.57 1.61 1.61 0 0 0 -2.12 1.77 1.19 1.19 0 0 0 .68.92c.79.4 1.6.75 2.4 1.12a3.56 3.56 0 0 1 2 1.7 3 3 0 0 1 -.47 3.32 3.84 3.84 0 0 1 -5.59.25 3.93 3.93 0 0 1 -1-2.5l1.1-.12c.09.33.16.66.27 1a2.31 2.31 0 0 0 2.21 1.63 2.5 2.5 0 0 0 2.44-1.38 1.92 1.92 0 0 0 -1-2.7c-.75-.37-1.52-.69-2.28-1a3.38 3.38 0 0 1 -1.43-1.08 2.65 2.65 0 0 1 1.75-4 3.22 3.22 0 0 1 3.66 2.25z"/><path d="m63.65 42.67h-1.13v-10h-2.81v-1.09h6.79v1.06h-1.85c-.32 0-.75-.08-.94.09s-.06.59-.06.9v9z"/></g></svg>